<svg width="151" height="89" viewBox="0 0 151 89" fill="none" xmlns="http://www.w3.org/2000/svg">
<path fill-rule="evenodd" clip-rule="evenodd" d="M148.234 0C150.28 0 151.006 2.70895 149.234 3.73205L3 88.1603C1.66666 88.9301 0 87.9678 0 86.4282V54.0966C0 53.3821 0.381198 52.7218 1 52.3645L91.2339 0.267947C91.538 0.0924101 91.8829 0 92.2339 0H148.234Z" fill="#D4FF27"/>
<path d="M10.7326 66.5225C10.2046 65.608 9.85627 64.7807 9.6876 64.0405C9.52283 63.2858 9.51319 62.6078 9.6587 62.0065C9.81344 61.3998 10.1107 60.8587 10.5505 60.3831C10.9942 59.8929 11.5578 59.4505 12.2414 59.0558C13.4792 58.3411 14.6051 58.0298 15.6189 58.1219C16.6328 58.214 17.5491 58.8304 18.3679 59.9712L15.9707 61.3552C15.5647 60.8013 15.1487 60.518 14.7226 60.5054C14.3058 60.4874 13.8387 60.6277 13.3214 60.9264C12.7486 61.2571 12.3655 61.6815 12.172 62.1997C11.9785 62.7178 12.1484 63.4388 12.6818 64.3626L13.5858 65.9283C14.1138 66.8429 14.6512 67.3578 15.1982 67.4731C15.7543 67.5831 16.3234 67.4701 16.9054 67.1341C17.4042 66.8461 17.7547 66.5144 17.9567 66.1391C18.1535 65.7545 18.1254 65.2473 17.8726 64.6173L20.2697 63.2333C20.8245 64.5142 20.8909 65.6213 20.4691 66.5546C20.0511 67.4733 19.2232 68.29 17.9854 69.0047C17.3018 69.3994 16.6395 69.6709 15.9985 69.8193C15.3667 69.9623 14.7494 69.9492 14.1467 69.7799C13.5532 69.6052 12.9708 69.2579 12.3996 68.7378C11.8323 68.2032 11.2766 67.4648 10.7326 66.5225ZM20.2818 60.8985C19.7538 59.9839 19.4127 59.1585 19.2586 58.4223C19.1084 57.6715 19.118 56.9947 19.2873 56.3919C19.4659 55.7839 19.8008 55.2333 20.2921 54.7403C20.7873 54.2327 21.4136 53.7602 22.1711 53.3229C22.9286 52.8855 23.6509 52.5793 24.3382 52.4043C25.02 52.22 25.6643 52.2052 26.2709 52.3599C26.8868 52.5094 27.4777 52.8395 28.0436 53.3503C28.6134 53.8465 29.1623 54.5519 29.6903 55.4665C30.245 56.4272 30.6054 57.2968 30.7716 58.0753C30.947 58.8485 30.9508 59.5484 30.7829 60.175C30.619 60.7869 30.2894 61.3467 29.7942 61.8543C29.2989 62.362 28.6726 62.8344 27.9151 63.2718C27.1576 63.7091 26.4353 64.0153 25.7481 64.1903C25.0701 64.3601 24.4205 64.3656 23.7993 64.207C23.182 64.0337 22.5778 63.6805 21.9866 63.1473C21.4047 62.6088 20.8365 61.8592 20.2818 60.8985ZM27.7171 57.5848L26.9731 56.2962C26.4505 55.3909 25.8912 54.8701 25.2952 54.7339C24.6992 54.5976 24.0178 54.7508 23.2511 55.1935C22.4844 55.6361 22.011 56.1496 21.8311 56.7339C21.6511 57.3181 21.8224 58.0629 22.3451 58.9682L23.0891 60.2568C23.6384 61.2083 24.2084 61.7476 24.7991 61.8746C25.3897 62.0016 26.0684 61.8438 26.8351 61.4011C27.6018 60.9585 28.0779 60.4496 28.2632 59.8746C28.4485 59.2996 28.2665 58.5363 27.7171 57.5848ZM37.4476 55.8837L31.9397 50.8238L36.2117 58.2231L34.1055 59.4391L28.5855 49.8782L32.105 47.8462L37.1885 52.523L35.68 45.7822L39.1995 43.7502L44.7195 53.3111L42.3916 54.6551L38.0956 47.2142L39.7339 54.5637L37.4476 55.8837ZM41.1732 42.6107L43.5011 41.2667L49.0211 50.8276L46.6932 52.1716L41.1732 42.6107ZM56.2098 46.6771L49.3214 41.7861L53.1614 48.4371L50.986 49.6931L45.466 40.1322L48.6529 38.2922L55.5632 43.1892L51.7152 36.5242L53.8907 35.2682L59.4107 44.8291L56.2098 46.6771ZM58.2179 39.1069C57.6845 38.1831 57.3335 37.3512 57.1649 36.611C57.0001 35.8563 56.9904 35.1783 57.1359 34.577C57.2907 33.9703 57.5926 33.4265 58.0416 32.9456C58.4906 32.4646 59.0569 32.0268 59.7405 31.6322C60.9876 30.9122 62.118 30.5982 63.1319 30.6903C64.1404 30.7731 65.0461 31.3711 65.8488 32.4841L63.4517 33.8681C63.0724 33.3605 62.6696 33.1003 62.2436 33.0876C61.8214 33.0604 61.347 33.1988 60.8205 33.5028C60.2385 33.8388 59.8508 34.2659 59.6573 34.784C59.4638 35.3022 59.6364 36.0278 60.175 36.9608L61.103 38.5681C61.6257 39.4734 62.1578 39.9791 62.6994 40.0852C63.2449 40.1767 63.8133 40.0518 64.4045 39.7105C65.0973 39.3105 65.5161 38.8839 65.661 38.4308C65.8097 37.9631 65.7266 37.4137 65.4115 36.7827L63.4439 37.9187L62.4839 36.2559L66.7933 33.7679L67.5453 35.0704C68.3239 36.4191 68.5192 37.6427 68.1312 38.7413C67.7524 39.8345 66.8701 40.7811 65.4845 41.5811C64.8009 41.9757 64.1386 42.2473 63.4976 42.3957C62.8566 42.544 62.2374 42.5382 61.6399 42.3781C61.0464 42.2035 60.4641 41.8561 59.8929 41.3361C59.3255 40.8014 58.7672 40.0584 58.2179 39.1069ZM72.1676 33.6026L74.5648 32.2186C74.8819 32.7252 75.2317 32.979 75.614 32.98C76.0057 32.9756 76.4601 32.824 76.9774 32.5254C77.4855 32.232 77.8374 31.9242 78.0331 31.6018C78.238 31.2741 78.2098 30.8839 77.9485 30.4313C77.6498 29.914 77.1801 29.7725 76.5395 30.0069C75.8989 30.2413 75.1975 30.4985 74.4353 30.7784C73.6824 31.0529 72.9136 31.1827 72.129 31.1677C71.339 31.1434 70.6507 30.6232 70.064 29.6071C69.4614 28.5632 69.3639 27.6157 69.7716 26.7645C70.1792 25.9133 70.9697 25.149 72.1428 24.4717C73.2975 23.805 74.3493 23.4934 75.2981 23.5368C76.2562 23.5748 77.0504 24.1078 77.6808 25.1357L75.2836 26.5197C75.0145 26.0962 74.706 25.8925 74.3581 25.9086C74.0141 25.9101 73.625 26.0362 73.1908 26.2869C72.7197 26.5589 72.3909 26.8534 72.2045 27.1704C72.0219 27.4729 72.0586 27.8458 72.3146 28.2892C72.5973 28.7788 73.0616 28.911 73.7076 28.6859C74.3482 28.4515 75.045 28.197 75.7979 27.9224C76.5601 27.6425 77.3335 27.5101 78.1181 27.5251C78.8974 27.5309 79.5644 28.0142 80.1191 28.9749C80.7697 30.1019 80.8919 31.1029 80.4857 31.9779C80.0833 32.8383 79.2633 33.6259 78.0254 34.3406C76.7691 35.0659 75.652 35.403 74.674 35.3517C73.6999 35.286 72.8645 34.7029 72.1676 33.6026ZM80.1144 26.3541C79.5864 25.4396 79.2454 24.6142 79.0912 23.8779C78.941 23.1271 78.9506 22.4503 79.1199 21.8476C79.2985 21.2395 79.6334 20.6889 80.1247 20.1959C80.6199 19.6883 81.2462 19.2158 82.0037 18.7785C82.7612 18.3412 83.4836 18.035 84.1708 17.8599C84.8526 17.6756 85.4969 17.6608 86.1035 17.8156C86.7194 17.965 87.3103 18.2951 87.8762 18.8059C88.446 19.3022 88.9949 20.0076 89.5229 20.9221C90.0776 21.8828 90.438 22.7524 90.6042 23.531C90.7796 24.3042 90.7834 25.004 90.6155 25.6306C90.4516 26.2426 90.122 26.8024 89.6268 27.31C89.1316 27.8176 88.5052 28.2901 87.7477 28.7274C86.9902 29.1647 86.2679 29.4709 85.5807 29.646C84.9027 29.8157 84.2531 29.8212 83.6319 29.6626C83.0146 29.4894 82.4104 29.1362 81.8192 28.603C81.2374 28.0644 80.6691 27.3148 80.1144 26.3541ZM87.5497 23.0405L86.8057 21.7518C86.2831 20.8465 85.7238 20.3258 85.1278 20.1895C84.5318 20.0532 83.8504 20.2064 83.0837 20.6491C82.317 21.0918 81.8437 21.6052 81.6637 22.1895C81.4837 22.7738 81.655 23.5185 82.1777 24.4238L82.9217 25.7125C83.471 26.6639 84.041 27.2032 84.6317 27.3302C85.2223 27.4573 85.901 27.2994 86.6677 26.8568C87.4344 26.4141 87.9105 25.9053 88.0958 25.3302C88.2811 24.7552 88.0991 23.9919 87.5497 23.0405ZM90.74 20.2194C90.212 19.3049 89.8709 18.4795 89.7168 17.7432C89.5666 16.9924 89.5762 16.3156 89.7455 15.7129C89.9241 15.1048 90.259 14.5542 90.7503 14.0612C91.2455 13.5536 91.8718 13.0811 92.6293 12.6438C93.3868 12.2065 94.1091 11.9003 94.7964 11.7252C95.4782 11.5409 96.1225 11.5261 96.7291 11.6809C97.345 11.8303 97.9359 12.1604 98.5018 12.6712C99.0716 13.1675 99.6205 13.8729 100.148 14.7874C100.703 15.7481 101.064 16.6177 101.23 17.3963C101.405 18.1695 101.409 18.8693 101.241 19.4959C101.077 20.1079 100.748 20.6677 100.252 21.1753C99.7571 21.6829 99.1308 22.1554 98.3733 22.5927C97.6158 23.03 96.8935 23.3362 96.2063 23.5113C95.5283 23.681 94.8787 23.6865 94.2575 23.5279C93.6402 23.3547 93.036 23.0015 92.4448 22.4683C91.8629 21.9297 91.2947 21.1801 90.74 20.2194ZM98.1753 16.9058L97.4313 15.6171C96.9087 14.7119 96.3494 14.1911 95.7534 14.0548C95.1574 13.9185 94.476 14.0717 93.7093 14.5144C92.9426 14.9571 92.4692 15.4705 92.2893 16.0548C92.1093 16.6391 92.2806 17.3839 92.8033 18.2891L93.5473 19.5778C94.0966 20.5293 94.6666 21.0685 95.2573 21.1955C95.8479 21.3226 96.5266 21.1647 97.2933 20.7221C98.06 20.2794 98.5361 19.7706 98.7214 19.1955C98.9067 18.6205 98.7247 17.8573 98.1753 16.9058ZM109.788 15.744L102.899 10.8529L106.739 17.504L104.564 18.76L99.0437 9.19909L102.231 7.35909L109.141 12.256L105.293 5.59109L107.468 4.33509L112.988 13.896L109.788 15.744Z" fill="black"/>
</svg>
